<svg xmlns="http://www.w3.org/2000/svg" viewBox="0 0 72.06 82.94">
    <path d="M66.13,73.24a13.48,13.48,0,0,0,2.75,8.19H6.64A5.39,5.39,0,0,1,1.24,76V69.63a5.39,5.39,0,0,1,5.4-5.39h62.9A13.51,13.51,0,0,0,66.13,73.24Z"></path>
    <path d="M67.56,82.94H6.9A6.9,6.9,0,0,1,0,76v-6a6.8,6.8,0,0,1,6.8-6.8h57.6a4.67,4.67,0,0,0,4.66-4.66V8a5,5,0,0,0-5-5H14.91A11.92,11.92,0,0,0,3,14.91V55.06a1.5,1.5,0,0,1-3,0V14.91A14.93,14.93,0,0,1,14.91,0H64.07a8,8,0,0,1,8,8V58.61a7.67,7.67,0,0,1-7.66,7.66H6.8A3.8,3.8,0,0,0,3,70.07v6a3.9,3.9,0,0,0,3.9,3.89H67.56a1.5,1.5,0,1,1,0,3Z"></path>
    <path d="M64.56,74.92H11.11a1.5,1.5,0,0,1,0-3H64.56a1.5,1.5,0,1,1,0,3Z"></path>
    <polygon points="47.59 32.26 29.81 43.11 29.81 21.4 47.59 32.26"></polygon>
    <path d="M29.81,44.61a1.5,1.5,0,0,1-1.5-1.5V21.4a1.5,1.5,0,0,1,2.28-1.28L48.37,31a1.5,1.5,0,0,1,0,2.56L30.59,44.39A1.5,1.5,0,0,1,29.81,44.61Zm1.5-20.54V40.44l13.41-8.19Z"></path>
    <path d="M35.39,52.65A20.39,20.39,0,1,1,55.78,32.26,20.42,20.42,0,0,1,35.39,52.65Zm0-37.79A17.39,17.39,0,1,0,52.78,32.26,17.41,17.41,0,0,0,35.39,14.86Z"></path>
</svg>
