<svg viewBox="1 1 511.99998 511.99998" xmlns="http://www.w3.org/2000/svg"><path d="m512 256c0 41.910156-10.074219 81.480469-27.929688 116.402344-18.765624 36.695312-46.132812 68.261718-79.433593 92.054687-10.929688 7.804688-22.496094 14.773438-34.605469 20.816407-24.503906 12.203124-51.234375 20.601562-79.425781 24.394531-11.316407 1.539062-22.871094 2.332031-34.605469 2.332031-27.730469 0-54.429688-4.410156-79.433594-12.570312-11.941406-3.886719-23.5-8.628907-34.605468-14.167969-30.40625-15.152344-57.375-36.183594-79.421876-61.597657-13.503906-15.558593-25.152343-32.769531-34.621093-51.285156-17.84375-34.917968-27.917969-74.476562-27.917969-116.378906s10.074219-81.460938 27.917969-116.378906c12.175781-23.804688 27.964843-45.453125 46.644531-64.222656 8.601562-8.640626 17.804688-16.664063 27.566406-24.011719 42.828125-32.265625 96.109375-51.386719 153.871094-51.386719 57.75 0 111.03125 19.121094 153.859375 51.378906 3.335937 2.507813 6.59375 5.097656 9.792969 7.761719 26.550781 22.078125 48.554687 49.445313 64.417968 80.457031 17.855469 34.921875 27.929688 74.492188 27.929688 116.402344zm0 0" fill="#515a6e"/><path d="m484.070312 126.789062v245.613282c-18.765624 36.695312-46.132812 68.261718-79.433593 92.054687-10.929688 7.804688-22.496094 14.773438-34.605469 20.816407v-358.484376l32.464844-61.453124 7.363281-13.957032 17.179687-32.527344 24.566407 46.484376zm0 0" fill="#5cbf96"/><path d="m484.097656 126.855469c-17.039062 9.015625-36.46875 14.121093-57.066406 14.121093-7.511719 0-14.882812-.679687-22.023438-1.984374-12.4375-2.265626-24.207031-6.40625-35.003906-12.136719l57.027344-108.007813.011719.011719zm0 0" fill="#e5d6b9"/><path d="m427.039062 18.851562-7.386718 40.289063-15.015625 81.835937v323.480469c-10.929688 7.804688-22.496094 14.773438-34.605469 20.816407v-358.484376l32.464844-61.453124 7.363281-13.957032zm0 0" fill="#529e5f"/><path d="m427.042969 18.859375-22.035157 120.132813c-12.4375-2.265626-24.207031-6.410157-35.003906-12.136719l57.027344-108.007813zm0 0" fill="#d1a982"/><path d="m451.605469 65.335938c-7.332031 3.882812-15.695313 6.082031-24.5625 6.082031-3.242188 0-6.421875-.285157-9.488281-.855469-5.351563-.980469-10.414063-2.757812-15.058594-5.226562l24.546875-46.488282zm0 0" fill="#5cbf96"/><path d="m427.042969 18.847656-9.492188 51.714844c-5.347656-.976562-10.410156-2.757812-15.054687-5.226562zm0 0" fill="#529e5f"/><path d="m370.03125 126.789062v358.484376c-24.503906 12.203124-51.234375 20.601562-79.425781 24.394531-11.316407 1.539062-22.871094 2.332031-34.605469 2.332031v-385.210938l32.464844-61.453124 24.542968-46.484376 24.558594 46.484376zm0 0" fill="#49aab7"/><path d="m370.058594 126.855469c-17.039063 9.015625-36.46875 14.121093-57.066406 14.121093-7.507813 0-14.878907-.679687-22.019532-1.984374-12.4375-2.265626-24.210937-6.40625-35.003906-12.136719l57.027344-108.007813.011718.011719zm0 0" fill="#e5d6b9"/><path d="m313.007812 18.851562-22.402343 122.125v368.691407c-11.316407 1.539062-22.871094 2.332031-34.605469 2.332031v-385.210938l32.464844-61.453124zm0 0" fill="#488089"/><path d="m313.007812 18.859375-22.035156 120.132813c-12.4375-2.265626-24.210937-6.410157-35.003906-12.136719l57.027344-108.007813zm0 0" fill="#d1a982"/><path d="m337.570312 65.335938c-7.332031 3.882812-15.695312 6.082031-24.5625 6.082031-3.246093 0-6.421874-.285157-9.488281-.855469-5.351562-.980469-10.414062-2.757812-15.058593-5.226562l24.546874-46.488282zm0 0" fill="#49aab7"/><path d="m313.007812 18.847656-9.492187 51.714844c-5.347656-.976562-10.414063-2.757812-15.054687-5.226562zm0 0" fill="#488089"/><path d="m256 126.789062v385.210938c-27.730469 0-54.429688-4.410156-79.433594-12.570312-11.941406-3.886719-23.5-8.628907-34.605468-14.167969v-358.472657l32.464843-61.453124 24.542969-46.484376 24.566406 46.484376zm0 0" fill="#ed5972"/><path d="m256.023438 126.855469c-17.039063 9.015625-36.46875 14.121093-57.066407 14.121093-7.507812 0-14.878906-.679687-22.019531-1.984374-12.4375-2.265626-24.210938-6.40625-35.003906-12.136719l57.027344-108.007813.011718.011719zm0 0" fill="#e5d6b9"/><path d="m198.96875 18.851562-22.402344 122.125v358.453126c-11.941406-3.886719-23.5-8.628907-34.605468-14.167969v-358.472657l32.464843-61.453124zm0 0" fill="#d8375a"/><path d="m198.972656 18.859375-22.035156 120.132813c-12.4375-2.265626-24.210938-6.410157-35.003906-12.136719l57.027344-108.007813zm0 0" fill="#d1a982"/><path d="m223.53125 65.335938c-7.332031 3.882812-15.695312 6.082031-24.558594 6.082031-3.246094 0-6.421875-.285157-9.492187-.855469-5.347657-.980469-10.414063-2.757812-15.058594-5.226562l24.550781-46.488282zm0 0" fill="#ed5972"/><path d="m198.972656 18.847656-9.492187 51.714844c-5.347657-.976562-10.414063-2.757812-15.058594-5.226562zm0 0" fill="#d8375a"/><path d="m141.960938 126.789062v358.472657c-30.40625-15.152344-57.375-36.183594-79.421876-61.597657-13.503906-15.558593-25.152343-32.769531-34.621093-51.285156v-245.589844l32.464843-61.453124 24.558594-46.484376 17.1875 32.535157 7.367188 13.949219zm0 0" fill="#f7d65e"/><path d="m141.988281 126.855469c-17.039062 9.015625-36.46875 14.121093-57.066406 14.121093-7.507813 0-14.878906-.679687-22.023437-1.984374-12.433594-2.265626-24.207032-6.40625-35-12.136719l57.023437-108.007813.015625.011719zm0 0" fill="#e5d6b9"/><path d="m84.941406 18.851562-10.378906 56.546876-12.023438 65.578124v282.6875c-13.503906-15.558593-25.152343-32.769531-34.621093-51.285156v-245.589844l32.464843-61.453124zm0 0" fill="#d1a22a"/><path d="m84.9375 18.859375-22.039062 120.132813c-12.433594-2.265626-24.207032-6.410157-35-12.136719l57.023437-108.007813zm0 0" fill="#d1a982"/><path d="m109.496094 65.335938c-7.332032 3.882812-15.695313 6.082031-24.558594 6.082031-3.246094 0-6.425781-.285157-9.492188-.855469-5.351562-.980469-10.414062-2.757812-15.058593-5.226562l24.550781-46.488282zm0 0" fill="#f7d65e"/><path d="m84.9375 18.847656-9.492188 51.714844c-5.351562-.976562-10.414062-2.757812-15.058593-5.226562zm0 0" fill="#d1a22a"/></svg>