<svg xmlns="http://www.w3.org/2000/svg" viewBox="0 0 118.63 73.84">
    <path
        d="M104.51,8.83h8.94l3.69,57.57L66,67.78s-2.46,4.78-6.81,4.56-6.82-4.56-6.82-4.56L1.5,66.4,5.19,8.83h8.94L10.49,58.51s32.68-2.27,45.23,6.18l3.6-1.53,2.63,1.92s30.9-10.75,46.2-6.34Z"></path>
    <path
        d="M72,36.43a1.5,1.5,0,0,1-.62-2.87,58.49,58.49,0,0,1,26-4.31,1.5,1.5,0,0,1-.22,3,56.49,56.49,0,0,0-24.52,4.05A1.5,1.5,0,0,1,72,36.43Z"></path>
    <path
        d="M72,25.63a1.5,1.5,0,0,1-.62-2.87,58.51,58.51,0,0,1,26-4.31,1.5,1.5,0,0,1-.22,3,56.38,56.38,0,0,0-24.52,4.05A1.5,1.5,0,0,1,72,25.63Z"></path>
    <path
        d="M48.68,36.43a1.5,1.5,0,0,1-.62-.13,56.56,56.56,0,0,0-24.52-4.05,1.5,1.5,0,0,1-.22-3,58.43,58.43,0,0,1,26,4.31,1.5,1.5,0,0,1-.62,2.87Z"></path>
    <path
        d="M72,46.27a1.5,1.5,0,0,1-.62-2.87,58.47,58.47,0,0,1,26-4.31,1.5,1.5,0,1,1-.22,3,56.56,56.56,0,0,0-24.52,4.05A1.5,1.5,0,0,1,72,46.27Z"></path>
    <path
        d="M48.68,46.27a1.5,1.5,0,0,1-.62-.13,56.53,56.53,0,0,0-24.52-4.05,1.5,1.5,0,1,1-.22-3,58.45,58.45,0,0,1,26,4.31,1.5,1.5,0,0,1-.62,2.87Z"></path>
    <path
        d="M48.68,25.63a1.5,1.5,0,0,1-.62-.13,56.58,56.58,0,0,0-24.52-4.05,1.5,1.5,0,0,1-.22-3,58.48,58.48,0,0,1,26,4.31,1.5,1.5,0,0,1-.62,2.87Z"></path>
    <path
        d="M61.14,66.93a1.5,1.5,0,0,1-.62-2.87c.91-.41,22.57-10,47.82-6.8a1.5,1.5,0,1,1-.38,3c-24.42-3.14-46,6.46-46.2,6.56A1.49,1.49,0,0,1,61.14,66.93Z"></path>
    <path
        d="M61.14,66.93a1.5,1.5,0,0,1-1.5-1.5V8.83a1.5,1.5,0,0,1,3,0V65.43A1.5,1.5,0,0,1,61.14,66.93Z"></path>
    <path
        d="M108.15,60a1.5,1.5,0,0,1-1.49-1.39L102.5,2a1.5,1.5,0,1,1,3-.22l4.15,56.59A1.5,1.5,0,0,1,108.26,60Z"></path>
    <path
        d="M61.14,10.33a1.5,1.5,0,0,1-.62-2.87A98.27,98.27,0,0,1,104.13.23a1.5,1.5,0,0,1-.22,3c-22.65-1.69-42,6.89-42.14,7A1.5,1.5,0,0,1,61.14,10.33Z"></path>
    <path
        d="M59.17,73.84A8.85,8.85,0,0,1,51,68.35a1.5,1.5,0,0,1,2.77-1.14,5.88,5.88,0,0,0,10.85,0,1.5,1.5,0,1,1,2.76,1.17A8.86,8.86,0,0,1,59.17,73.84Z"></path>
    <path
        d="M66,69.28a1.5,1.5,0,0,1,0-3l49.59-1.34L112,10.33h-6a1.5,1.5,0,1,1,0-3h7.37a1.5,1.5,0,0,1,1.5,1.4l3.69,57.57a1.5,1.5,0,0,1-1.46,1.6L66,69.28Z"></path>
    <path
        d="M57.49,66.93a1.49,1.49,0,0,1-.62-.13c-.21-.1-21.82-9.69-46.2-6.56a1.5,1.5,0,1,1-.38-3C35.54,54,57.2,63.65,58.11,64.06a1.5,1.5,0,0,1-.62,2.87Z"></path>
    <path
        d="M57.5,66.93a1.5,1.5,0,0,1-1.5-1.5V8.83a1.5,1.5,0,1,1,3,0V65.43A1.5,1.5,0,0,1,57.5,66.93Z"></path>
    <path
        d="M10.49,60h-.11A1.5,1.5,0,0,1,9,58.4L13.14,1.81a1.5,1.5,0,1,1,3,.22L12,58.62A1.5,1.5,0,0,1,10.49,60Z"></path>
    <path
        d="M57.49,10.33a1.49,1.49,0,0,1-.62-.13c-.19-.09-19.49-8.66-42.15-7a1.5,1.5,0,0,1-.22-3A98.19,98.19,0,0,1,58.11,7.47a1.5,1.5,0,0,1-.62,2.87Z"></path>
    <path
        d="M52.36,69.28h0L1.46,67.9A1.5,1.5,0,0,1,0,66.3L3.69,8.74a1.5,1.5,0,0,1,1.5-1.4h7.37a1.5,1.5,0,1,1,0,3h-6L3.1,64.94l49.3,1.34a1.5,1.5,0,0,1,0,3Z"></path>
</svg>
